<svg width="14" height="15" viewBox="0 0 14 15" fill="none" xmlns="http://www.w3.org/2000/svg">
<path d="M6.91023 0.0258935C6.37 0.0264658 5.83076 0.0719968 5.29809 0.162015C3.87043 0.411473 3.61125 0.933623 3.61125 1.89656V3.16831H6.98492V3.59222H2.34509C1.32503 3.56974 0.436202 4.2832 0.2375 5.28398C-0.0791781 6.39223 -0.0791781 7.56702 0.2375 8.67528C0.33001 9.60726 1.09474 10.3288 2.03052 10.3671H3.19044V8.84247C3.22234 7.69766 4.15285 6.78248 5.29803 6.76959H8.66781C9.11644 6.7687 9.54632 6.58949 9.86272 6.27143C10.1791 5.95337 10.3561 5.52256 10.3546 5.07393V1.89656C10.2918 0.983847 9.57841 0.250289 8.66781 0.162015C8.08672 0.0680864 7.49885 0.0225562 6.91023 0.0258935ZM5.08568 1.04874C5.34294 1.0476 5.57555 1.20159 5.67496 1.43888C5.77438 1.67616 5.72103 1.94997 5.53979 2.13256C5.35856 2.31515 5.08516 2.37055 4.84714 2.2729C4.60912 2.17526 4.4534 1.94381 4.45261 1.68654C4.4519 1.33585 4.73498 1.05064 5.08568 1.04874Z" fill="#40A0CF" fill-opacity="0.9"/>
<path d="M10.7754 5.07396C10.7562 6.23124 9.82505 7.16601 8.66785 7.18963H5.29807C4.36859 7.20292 3.61967 7.95575 3.61124 8.88529V12.0627C3.72151 12.9462 4.41513 13.6434 5.29807 13.7583C6.3957 14.0977 7.57022 14.0977 8.66785 13.7583C9.55559 13.6532 10.2542 12.9509 10.3547 12.0627V10.791H6.98493V10.3671H12.0416C13.0221 10.3671 13.3874 9.69062 13.7284 8.67529C14.0746 7.57136 14.0746 6.38792 13.7284 5.28399C13.6747 4.3747 12.9507 3.64858 12.0416 3.59222H10.7754V5.07396ZM8.8802 11.6388C9.13782 11.6377 9.37067 11.7921 9.46986 12.0298C9.56906 12.2676 9.51499 12.5417 9.33295 12.724C9.15091 12.9063 8.87687 12.9607 8.63898 12.8619C8.40108 12.763 8.24635 12.5304 8.24713 12.2727C8.24695 12.1047 8.31355 11.9435 8.43229 11.8246C8.55103 11.7057 8.71216 11.6389 8.88019 11.6388L8.8802 11.6388Z" fill="#FFC900" fill-opacity="0.9"/>
</svg>
